<svg id="Layer_1" data-name="Layer 1" xmlns="http://www.w3.org/2000/svg" width="150" height="150" viewBox="0 0 150 150"><title>example-card</title><rect width="150" height="150" fill="#cecece"/><path d="M0,0,19.1,18.4l19,18.5C50.7,49.3,63.2,61.8,75.7,74.3s24.9,25.1,37.3,37.7l18.5,19L150,150l-19.1-18.4-19-18.5C99.3,100.7,86.8,88.2,74.3,75.7S49.3,50.7,36.9,38.1l-18.5-19Z" fill="#b2b2b2"/><path d="M150,0,131.6,19.1l-18.5,19C100.7,50.7,88.2,63.2,75.7,75.7s-25.1,24.9-37.7,37.3l-19,18.5L0,150l18.4-19.1,18.5-19C49.3,99.3,61.8,86.8,74.3,74.3s25.1-24.9,37.7-37.3l19-18.5Z" fill="#b2b2b2"/></svg>