<svg id="Layer_1" data-name="Layer 1" xmlns="http://www.w3.org/2000/svg" width="1in" height="1in" viewBox="0 0 72 72"><title>example-1</title><rect width="72" height="72" fill="#cecece"/><path d="M0,0C6.1,5.9,12.2,11.8,18.3,17.7L36.4,35.6,54.3,53.7l8.9,9.1L72,72l-9.2-8.8-9.1-8.9L35.6,36.4,17.7,18.3C11.8,12.2,5.9,6.1,0,0Z" fill="#b2b2b2"/><path d="M72,0C66.1,6.1,60.2,12.2,54.3,18.3L36.4,36.4,18.3,54.3,9.2,63.2,0,72l8.8-9.2,8.9-9.1L35.6,35.6,53.7,17.7C59.8,11.8,65.9,5.9,72,0Z" fill="#b2b2b2"/></svg>