<svg xmlns="http://www.w3.org/2000/svg" width="336" height="336" viewBox="0 0 252 252"><circle cx="126" cy="126" r="89.8" data-name="Layer 2"/><g fill="#fff" data-name="Layer 3"><path d="M76.3 81.9c8.6-2.9 29.7-8 52.2 1.2a6 6 0 0 1 3.7 5.6v79.9a6.1 6.1 0 0 1-8.2 5.7c-8.1-3-22.6-5.9-44.6-1.7a6.1 6.1 0 0 1-7.2-6v-79a6.1 6.1 0 0 1 4.1-5.7z"/><path d="M175.8 81.9c-8.6-2.9-29.5-8-51.9 1.2a6 6 0 0 0-3.7 5.6v79.9a6 6 0 0 0 8.1 5.7c8.1-3 22.4-5.9 44.4-1.7a6 6 0 0 0 7.1-6v-79a6.1 6.1 0 0 0-4-5.7z"/></g><path fill="none" stroke="#000" stroke-linecap="round" stroke-miterlimit="10" stroke-width="5" d="M132.1 107.8a37.9 37.9 0 0 1 33.6-3.2m-33.6 24.8a37.9 37.9 0 0 1 33.6-3.2m-33.6 24.9a37.9 37.9 0 0 1 33.6-3.2m-46.8-40.1a37.9 37.9 0 0 0-33.6-3.2m33.6 24.8a37.9 37.9 0 0 0-33.6-3.2m33.6 24.9a37.9 37.9 0 0 0-33.6-3.2" data-name="Layer 4"/></svg>