<svg xmlns="http://www.w3.org/2000/svg" width="336" height="336" viewBox="0 0 250.8 250.8"><circle id="Layer_2" cx="125.4" cy="122.8" r="89.8" data-name="Layer 2"/><g id="Layer_3" data-name="Layer 3"><path fill="#fff" d="M97.9 172.5H157a14.7 14.7 0 0 0 14.7-14.7V132a14.7 14.7 0 0 0-4.8-10.9l-30.5-27.6a14.7 14.7 0 0 0-20 .3l-28.6 27.3a14.7 14.7 0 0 0-4.5 10.6v26.1a14.7 14.7 0 0 0 14.6 14.7z"/><path fill="none" stroke="#fff" stroke-linecap="round" stroke-miterlimit="10" stroke-width="10" d="M76.3 113.6L122 68.8a5.7 5.7 0 0 1 8 0l46.6 44.9"/></g></svg>