<svg xmlns="http://www.w3.org/2000/svg" width="336" height="336" viewBox="0 0 250.8 250.8"><circle id="Layer_2" cx="125.4" cy="125.4" r="89.8" data-name="Layer 2"/><g id="Layer_3" data-name="Layer 3"><path fill="#fff" d="M75.2 74.8h98.9s31.9 39.5 14.9 52.6c0 0-10.2 11.3-22.6-10.3 0 0 5.5 60.6-42.1 58.9S82 122.8 82 122.8s-6.8 11.3-19 6.2-5.2-33.9 12.2-54.2z"/><circle cx="100.9" cy="121.2" r="6.2"/><circle cx="148.7" cy="121.2" r="6.2"/><path d="M111.1 141.6h28.7a1 1 0 0 1 .8 1.6l-12.9 17a2.4 2.4 0 0 1-3.8.1l-13.8-16.9a1.1 1.1 0 0 1 1-1.8z"/></g></svg>