<svg xmlns="http://www.w3.org/2000/svg"><symbol id="button-adoption" viewBox="0 0 250.8 250.8"><circle id="Layer_2" cx="125.4" cy="125.4" r="89.8" data-name="Layer 2"/><g id="Layer_3" data-name="Layer 3"><path fill="#fff" d="M75.2 74.8h98.9s31.9 39.5 14.9 52.6c0 0-10.2 11.3-22.6-10.3 0 0 5.5 60.6-42.1 58.9S82 122.8 82 122.8s-6.8 11.3-19 6.2-5.2-33.9 12.2-54.2z"/><circle cx="100.9" cy="121.2" r="6.2"/><circle cx="148.7" cy="121.2" r="6.2"/><path d="M111.1 141.6h28.7a1 1 0 0 1 .8 1.6l-12.9 17a2.4 2.4 0 0 1-3.8.1l-13.8-16.9a1.1 1.1 0 0 1 1-1.8z"/></g></symbol><symbol id="button-guestbook" viewBox="0 0 252 252"><circle id="Layer_2" cx="126" cy="126" r="89.8" data-name="Layer 2"/><g id="Layer_3" fill="#fff" data-name="Layer 3"><path d="M76.3 81.9c8.6-2.9 29.7-8 52.2 1.2a6 6 0 0 1 3.7 5.6v79.9a6.1 6.1 0 0 1-8.2 5.7c-8.1-3-22.6-5.9-44.6-1.7a6.1 6.1 0 0 1-7.2-6v-79a6.1 6.1 0 0 1 4.1-5.7z"/><path d="M175.8 81.9c-8.6-2.9-29.5-8-51.9 1.2a6 6 0 0 0-3.7 5.6v79.9a6 6 0 0 0 8.1 5.7c8.1-3 22.4-5.9 44.4-1.7a6 6 0 0 0 7.1-6v-79a6.1 6.1 0 0 0-4-5.7z"/></g><path id="Layer_4" fill="none" stroke="#000" stroke-linecap="round" stroke-miterlimit="10" stroke-width="5" d="M132.1 107.8a37.9 37.9 0 0 1 33.6-3.2m-33.6 24.8a37.9 37.9 0 0 1 33.6-3.2m-33.6 24.9a37.9 37.9 0 0 1 33.6-3.2m-46.8-40.1a37.9 37.9 0 0 0-33.6-3.2m33.6 24.8a37.9 37.9 0 0 0-33.6-3.2m33.6 24.9a37.9 37.9 0 0 0-33.6-3.2" data-name="Layer 4"/></symbol><symbol id="button-help" viewBox="0 0 250.8 250.8"><circle id="Layer_2" cx="125.4" cy="125.4" r="89.8" data-name="Layer 2"/><g id="Layer_3" fill="#fff" data-name="Layer 3"><path d="M96.4 76.4l5.4 18s17.2-10.4 26.5 0-7.1 14.4-12.7 27.4-4.2 23.4-4.2 23.4h20.9s.9-14.4 6.2-19.7 21.4-24.5 13.8-39.2-23.1-22.9-55.9-9.9z"/><circle cx="120.9" cy="166.7" r="14.1"/></g></symbol><symbol id="button-home" viewBox="0 0 250.8 250.8"><circle id="Layer_2" cx="125.4" cy="122.8" r="89.8" data-name="Layer 2"/><g id="Layer_3" data-name="Layer 3"><path fill="#fff" d="M97.9 172.5H157a14.7 14.7 0 0 0 14.7-14.7V132a14.7 14.7 0 0 0-4.8-10.9l-30.5-27.6a14.7 14.7 0 0 0-20 .3l-28.6 27.3a14.7 14.7 0 0 0-4.5 10.6v26.1a14.7 14.7 0 0 0 14.6 14.7z"/><path fill="none" stroke="#fff" stroke-linecap="round" stroke-miterlimit="10" stroke-width="10" d="M76.3 113.6L122 68.8a5.7 5.7 0 0 1 8 0l46.6 44.9"/></g></symbol></svg>