<svg xmlns="http://www.w3.org/2000/svg"><symbol id="facebook-icon" viewBox="0 0 50 50"><circle cx="25" cy="25" r="18.5" fill="#e8614b" data-name="Layer 3"/><path fill="#fff" d="M22.1 36.1h4.8V25h2.9l.3-3.7h-3.4v-2.5a1 1 0 0 1 1-1h2.4v-3.7h-4a4.2 4.2 0 0 0-3.1 1.3 3.4 3.4 0 0 0-.9 2.3c-.1 2.6 0 3.4 0 3.4h-2.3V25h2.3z" data-name="Layer 2"/></symbol><symbol id="insta-icon" viewBox="0 0 50 50"><circle cx="25" cy="24.8" r="18.5" fill="#e8614b" data-name="Layer 3"/><g data-name="Layer 4"><circle cx="24.5" cy="25.2" r="3.8" fill="none" stroke="#fff" stroke-miterlimit="10" stroke-width="1.85"/><circle cx="29.8" cy="20" r="1.7" fill="#fff"/><rect width="21.5" height="21.48" x="14.2" y="14.1" fill="none" stroke="#fff" stroke-miterlimit="10" stroke-width="2.37" rx="6" ry="6"/></g></symbol><symbol id="twitter-icon" viewBox="0 0 50 50"><circle cx="26.4" cy="24.8" r="18.5" fill="#e8614b" data-name="Layer 3"/><path fill="#fff" d="M26.2 20.8s-.7-4 2.2-5.7 6.1-.8 7 .7a7.8 7.8 0 0 0 3.6-1.3 5.2 5.2 0 0 1-2.3 3 6.7 6.7 0 0 0 3.1-.8 9.8 9.8 0 0 1-2.7 2.8s-.7 23.2-24 14c0 0 5 .3 8.2-2.3a5.6 5.6 0 0 1-5.1-3.7 5.3 5.3 0 0 0 2.3-.1 5.7 5.7 0 0 1-4.3-5.5 6.4 6.4 0 0 0 2.4.7s-3.8-2.4-1.7-7.3c0-.1 4.9 5.6 11.3 5.5z" data-name="Layer 5"/></symbol></svg>