<svg xmlns="http://www.w3.org/2000/svg" width="64" height="64" data-name="Layer 1" viewBox="0 0 64 64"><circle cx="32" cy="31.3" r="28.3" fill="#ea6045"/><path fill="#fff" stroke="#fff" stroke-linecap="round" stroke-linejoin="round" stroke-width=".75" d="M25.9 50.1h1.2l.6 1.7-5.4.7S8.9 28.4 32.2 28.4s9.9 24.1 9.9 24.1l-5.3-.8.6-1.8h1.3s9.3-17.6-6.4-17.8-6.4 18-6.4 18z"/><path fill="#fff" d="M25.5 8.7a4.2 4.2 0 0 1 2.9 1.1c1.1.9 1.5 2.2 2.3 4.8a17.9 17.9 0 0 1 .7 3.1c.2 2 .4 3.5-.3 5a5.6 5.6 0 0 1-4.4 3.3c-3.3.2-5.3-3.3-5.6-3.8-2.1-3.7-.4-7.7.1-8.9s1.9-4.4 4.3-4.6zm14.1 0a4.2 4.2 0 0 0-2.9 1.1c-1.1.9-1.5 2.2-2.3 4.8a17.8 17.8 0 0 0-.7 3.1c-.2 2-.4 3.5.3 5a5.6 5.6 0 0 0 4.3 3.3c3.3.2 5.3-3.3 5.6-3.8 2.1-3.7.4-7.7-.1-8.9S42 8.9 39.6 8.7zM14.9 18.8c.8.2.8 1.1 2.3 3s2.1 1.8 2.7 3.1a6.6 6.6 0 0 1 .2 4.8c-.1.2-1.3 3.4-3.9 3.6S11 29.4 10.8 29s-1.8-4 .1-7.3c.8-1.5 2.6-3.3 4-2.9zm34.5.3c-.8.2-.8 1.1-2.3 3s-2.1 1.8-2.7 3.1a6.6 6.6 0 0 0-.2 4.8c.1.2 1.3 3.4 3.9 3.6s5.2-3.9 5.4-4.4 1.8-4-.1-7.3c-.8-1.4-2.6-3.2-4-2.8z"/></svg>