<svg xmlns="http://www.w3.org/2000/svg"><symbol id="logo-16" viewBox="0 0 16 16"><circle cx="8" cy="8" r="7.4" fill="#ea6045" data-name="Layer 4"/><path fill="#fff" stroke="#fff" stroke-linecap="round" stroke-linejoin="round" stroke-width=".25" d="M6.4 12.9h.3v.5l-1.4.2S2 7.2 8.1 7.2s2.6 6.3 2.6 6.3l-1.4-.2.2-.5h.3s2.4-4.6-1.7-4.7-1.7 4.8-1.7 4.8z" data-name="Layer 2"/><path fill="#fff" d="M6.3 2.1a1.1 1.1 0 0 1 .8.3c.3.2.4.6.6 1.3a4.7 4.7 0 0 1 .2.8 2.2 2.2 0 0 1-.1 1.3 1.5 1.5 0 0 1-1.1.8c-.9.1-1.4-.9-1.5-1a2.6 2.6 0 0 1 0-2.3c.1-.3.5-1.1 1.1-1.2zm3.7 0a1.1 1.1 0 0 0-.8.3c-.3.2-.4.6-.6 1.3a4.7 4.7 0 0 0-.2.8 2.2 2.2 0 0 0 .1 1.3 1.5 1.5 0 0 0 1.1.8c.9.1 1.4-.9 1.5-1a2.6 2.6 0 0 0 0-2.3C11 3 10.6 2.2 10 2.1zM3.5 4.7c.2.1.2.3.6.8s.5.5.7.8a1.7 1.7 0 0 1 .1 1.3c0 .1-.3.9-1 1s-1.4-1-1.4-1.1a2.2 2.2 0 0 1 0-1.9c.2-.5.7-1 1-.9zm9.1.1c-.2.1-.2.3-.6.8s-.5.5-.7.8a1.7 1.7 0 0 0-.1 1.3c0 .1.3.9 1 1s1.4-1 1.4-1.1a2.2 2.2 0 0 0 0-1.9c-.2-.5-.7-1-1-.9z" data-name="Layer 3"/></symbol><symbol id="logo-32" viewBox="0 0 32 32"><circle cx="16" cy="16" r="14.5" fill="#ea6045"/><path fill="#fff" stroke="#fff" stroke-linecap="round" stroke-linejoin="round" stroke-width=".5" d="M12.8 25.6h.6l.3.9-2.7.4s-6.9-12.3 5.1-12.3 5 12.3 5 12.3l-2.7-.4.3-.9h.6s4.8-9-3.3-9.1-3.2 9.1-3.2 9.1z"/><path fill="#fff" d="M12.6 4.5a2.2 2.2 0 0 1 1.5.6c.6.5.8 1.1 1.2 2.5a9.1 9.1 0 0 1 .4 1.6 4.3 4.3 0 0 1-.2 2.6 2.9 2.9 0 0 1-2.2 1.6c-1.7.1-2.7-1.7-2.9-1.9a5.1 5.1 0 0 1 0-4.5c.3-.8 1-2.4 2.2-2.5zm7.2 0a2.2 2.2 0 0 0-1.5.6c-.6.5-.8 1.1-1.2 2.5a9.1 9.1 0 0 0-.4 1.6 4.3 4.3 0 0 0 .2 2.6 2.9 2.9 0 0 0 2.2 1.6c1.7.1 2.7-1.7 2.9-1.9A5.1 5.1 0 0 0 22 7c-.2-.8-.9-2.4-2.2-2.5zM7.2 9.6c.4.1.4.5 1.2 1.5s1.1.9 1.4 1.6a3.4 3.4 0 0 1 .1 2.5c0 .1-.7 1.7-2 1.9s-2.7-2-2.8-2.2a4.3 4.3 0 0 1 0-3.7c.5-.8 1.4-1.7 2.1-1.6zm17.7.2c-.4.1-.4.5-1.2 1.5s-1.1.9-1.4 1.6a3.4 3.4 0 0 0-.1 2.5c0 .1.7 1.7 2 1.9s2.7-2 2.8-2.2a4.3 4.3 0 0 0 0-3.7c-.5-.9-1.4-1.8-2.1-1.6z"/></symbol><symbol id="logo-64" viewBox="0 0 64 64"><circle cx="32" cy="31.3" r="28.3" fill="#ea6045"/><path fill="#fff" stroke="#fff" stroke-linecap="round" stroke-linejoin="round" stroke-width=".75" d="M25.9 50.1h1.2l.6 1.7-5.4.7S8.9 28.4 32.2 28.4s9.9 24.1 9.9 24.1l-5.3-.8.6-1.8h1.3s9.3-17.6-6.4-17.8-6.4 18-6.4 18z"/><path fill="#fff" d="M25.5 8.7a4.2 4.2 0 0 1 2.9 1.1c1.1.9 1.5 2.2 2.3 4.8a17.9 17.9 0 0 1 .7 3.1c.2 2 .4 3.5-.3 5a5.6 5.6 0 0 1-4.4 3.3c-3.3.2-5.3-3.3-5.6-3.8-2.1-3.7-.4-7.7.1-8.9s1.9-4.4 4.3-4.6zm14.1 0a4.2 4.2 0 0 0-2.9 1.1c-1.1.9-1.5 2.2-2.3 4.8a17.8 17.8 0 0 0-.7 3.1c-.2 2-.4 3.5.3 5a5.6 5.6 0 0 0 4.3 3.3c3.3.2 5.3-3.3 5.6-3.8 2.1-3.7.4-7.7-.1-8.9S42 8.9 39.6 8.7zM14.9 18.8c.8.2.8 1.1 2.3 3s2.1 1.8 2.7 3.1a6.6 6.6 0 0 1 .2 4.8c-.1.2-1.3 3.4-3.9 3.6S11 29.4 10.8 29s-1.8-4 .1-7.3c.8-1.5 2.6-3.3 4-2.9zm34.5.3c-.8.2-.8 1.1-2.3 3s-2.1 1.8-2.7 3.1a6.6 6.6 0 0 0-.2 4.8c.1.2 1.3 3.4 3.9 3.6s5.2-3.9 5.4-4.4 1.8-4-.1-7.3c-.8-1.4-2.6-3.2-4-2.8z"/></symbol><symbol id="logo-256" viewBox="0 0 256 256"><circle cx="128" cy="128" r="110.6" fill="#ea6045"/><path fill="#fff" stroke="#fff" stroke-linecap="round" stroke-linejoin="round" stroke-width="2" d="M104.1 201.2h4.9l2.2 6.8-20.9 2.7s-52.4-93.9 38.6-93.9 38.5 93.9 38.5 93.9l-20.7-3.1 2.4-7.1 4.9.6s36.3-68.7-25.1-69.5-24.8 69.6-24.8 69.6z"/><path fill="#fff" d="M102.6 40c5.6-.5 10.1 3.4 11.3 4.4 4.3 3.7 5.8 8.8 8.8 18.9a69.8 69.8 0 0 1 2.8 12.3c.9 7.7 1.7 13.6-1.3 19.5s-9 11.7-17 12.3c-12.7.9-20.7-13-21.7-14.8-8.3-14.4-1.6-30.1.3-34.7s7.4-17.2 16.8-17.9zm54.9 0c-5.6-.5-10.2 3.4-11.4 4.4-4.4 3.7-5.9 8.8-8.9 18.9a69.4 69.4 0 0 0-2.9 12.3c-1 7.7-1.7 13.6 1.3 19.5s9 11.7 17.1 12.3c12.8.9 20.8-13 21.9-14.8 8.3-14.4 1.6-30.1-.3-34.7S167 40.7 157.5 40zM61.1 79.1c3.3.9 3 4.1 8.8 11.7s8.2 6.9 10.7 12c4.5 8.9 1.1 18.4.9 18.9s-5.1 13.1-15.1 14.2c-12.2 1.3-20.3-15.3-21.1-17s-7-15.5.3-28.4c3.3-5.8 10.2-12.8 15.5-11.4zm135 1.1c-3.3.9-3 4.1-8.8 11.7s-8.2 6.9-10.7 12c-4.5 8.9-1.1 18.4-.9 18.9s5.1 13.1 15.1 14.2c12.2 1.3 20.3-15.3 21.1-17s7-15.5-.3-28.4c-3.3-5.8-10.2-12.8-15.5-11.4z"/></symbol></svg>