<svg xmlns="http://www.w3.org/2000/svg" width="32" height="32" data-name="Layer 1" viewBox="0 0 32 32"><circle cx="16" cy="16" r="14.5" fill="#ea6045"/><path fill="#fff" stroke="#fff" stroke-linecap="round" stroke-linejoin="round" stroke-width=".5" d="M12.8 25.6h.6l.3.9-2.7.4s-6.9-12.3 5.1-12.3 5 12.3 5 12.3l-2.7-.4.3-.9h.6s4.8-9-3.3-9.1-3.2 9.1-3.2 9.1z"/><path fill="#fff" d="M12.6 4.5a2.2 2.2 0 0 1 1.5.6c.6.5.8 1.1 1.2 2.5a9.1 9.1 0 0 1 .4 1.6 4.3 4.3 0 0 1-.2 2.6 2.9 2.9 0 0 1-2.2 1.6c-1.7.1-2.7-1.7-2.9-1.9a5.1 5.1 0 0 1 0-4.5c.3-.8 1-2.4 2.2-2.5zm7.2 0a2.2 2.2 0 0 0-1.5.6c-.6.5-.8 1.1-1.2 2.5a9.1 9.1 0 0 0-.4 1.6 4.3 4.3 0 0 0 .2 2.6 2.9 2.9 0 0 0 2.2 1.6c1.7.1 2.7-1.7 2.9-1.9A5.1 5.1 0 0 0 22 7c-.2-.8-.9-2.4-2.2-2.5zM7.2 9.6c.4.1.4.5 1.2 1.5s1.1.9 1.4 1.6a3.4 3.4 0 0 1 .1 2.5c0 .1-.7 1.7-2 1.9s-2.7-2-2.8-2.2a4.3 4.3 0 0 1 0-3.7c.5-.8 1.4-1.7 2.1-1.6zm17.7.2c-.4.1-.4.5-1.2 1.5s-1.1.9-1.4 1.6a3.4 3.4 0 0 0-.1 2.5c0 .1.7 1.7 2 1.9s2.7-2 2.8-2.2a4.3 4.3 0 0 0 0-3.7c-.5-.9-1.4-1.8-2.1-1.6z"/></svg>