<svg xmlns="http://www.w3.org/2000/svg" width="16" height="16" viewBox="0 0 16 16"><title>16px Colour</title><g id="Layer_4" data-name="Layer 4"><circle cx="8" cy="8" r="7.4" fill="#ea6045"/></g><g id="Layer_2" data-name="Layer 2"><path d="M6.4,12.9h.3v.5l-1.4.2S2,7.2,8.1,7.2s2.6,6.3,2.6,6.3l-1.4-.2.2-.5h.3s2.4-4.6-1.7-4.7S6.4,12.9,6.4,12.9Z" fill="#fff" stroke="#fff" stroke-linecap="round" stroke-linejoin="round" stroke-width="0.25"/></g><g id="Layer_3" data-name="Layer 3"><path d="M6.3,2.1a1.1,1.1,0,0,1,.8.3c.3.2.4.6.6,1.3a4.7,4.7,0,0,1,.2.8,2.2,2.2,0,0,1-.1,1.3,1.5,1.5,0,0,1-1.1.8c-.9.1-1.4-.9-1.5-1a2.6,2.6,0,0,1,0-2.3C5.3,3,5.7,2.2,6.3,2.1Z" fill="#fff"/><path d="M10,2.1a1.1,1.1,0,0,0-.8.3c-.3.2-.4.6-.6,1.3a4.7,4.7,0,0,0-.2.8,2.2,2.2,0,0,0,.1,1.3,1.5,1.5,0,0,0,1.1.8c.9.1,1.4-.9,1.5-1a2.6,2.6,0,0,0,0-2.3C11,3,10.6,2.2,10,2.1Z" fill="#fff"/><path d="M3.5,4.7c.2.1.2.3.6.8s.5.5.7.8a1.7,1.7,0,0,1,.1,1.3c0,.1-.3.9-1,1s-1.4-1-1.4-1.1a2.2,2.2,0,0,1,0-1.9C2.7,5.1,3.2,4.6,3.5,4.7Z" fill="#fff"/><path d="M12.6,4.8c-.2.1-.2.3-.6.8s-.5.5-.7.8a1.7,1.7,0,0,0-.1,1.3c0,.1.3.9,1,1s1.4-1,1.4-1.1a2.2,2.2,0,0,0,0-1.9C13.4,5.2,12.9,4.7,12.6,4.8Z" fill="#fff"/></g></svg>