<svg xmlns="http://www.w3.org/2000/svg" width="256" height="256" data-name="Layer 1" viewBox="0 0 256 256"><circle cx="128" cy="128" r="110.6" fill="#ea6045"/><path fill="#fff" stroke="#fff" stroke-linecap="round" stroke-linejoin="round" stroke-width="2" d="M104.1 201.2h4.9l2.2 6.8-20.9 2.7s-52.4-93.9 38.6-93.9 38.5 93.9 38.5 93.9l-20.7-3.1 2.4-7.1 4.9.6s36.3-68.7-25.1-69.5-24.8 69.6-24.8 69.6z"/><path fill="#fff" d="M102.6 40c5.6-.5 10.1 3.4 11.3 4.4 4.3 3.7 5.8 8.8 8.8 18.9a69.8 69.8 0 0 1 2.8 12.3c.9 7.7 1.7 13.6-1.3 19.5s-9 11.7-17 12.3c-12.7.9-20.7-13-21.7-14.8-8.3-14.4-1.6-30.1.3-34.7s7.4-17.2 16.8-17.9zm54.9 0c-5.6-.5-10.2 3.4-11.4 4.4-4.4 3.7-5.9 8.8-8.9 18.9a69.4 69.4 0 0 0-2.9 12.3c-1 7.7-1.7 13.6 1.3 19.5s9 11.7 17.1 12.3c12.8.9 20.8-13 21.9-14.8 8.3-14.4 1.6-30.1-.3-34.7S167 40.7 157.5 40zM61.1 79.1c3.3.9 3 4.1 8.8 11.7s8.2 6.9 10.7 12c4.5 8.9 1.1 18.4.9 18.9s-5.1 13.1-15.1 14.2c-12.2 1.3-20.3-15.3-21.1-17s-7-15.5.3-28.4c3.3-5.8 10.2-12.8 15.5-11.4zm135 1.1c-3.3.9-3 4.1-8.8 11.7s-8.2 6.9-10.7 12c-4.5 8.9-1.1 18.4-.9 18.9s5.1 13.1 15.1 14.2c12.2 1.3 20.3-15.3 21.1-17s7-15.5-.3-28.4c-3.3-5.8-10.2-12.8-15.5-11.4z"/></svg>