<svg xmlns="http://www.w3.org/2000/svg" width="16" height="16" viewBox="0 0 16 16"><circle cx="8" cy="8" r="7.4" fill="#ea6045" data-name="Layer 4"/><path fill="#fff" stroke="#fff" stroke-linecap="round" stroke-linejoin="round" stroke-width=".25" d="M6.4 12.9h.3v.5l-1.4.2S2 7.2 8.1 7.2s2.6 6.3 2.6 6.3l-1.4-.2.2-.5h.3s2.4-4.6-1.7-4.7-1.7 4.8-1.7 4.8z" data-name="Layer 2"/><path fill="#fff" d="M6.3 2.1a1.1 1.1 0 0 1 .8.3c.3.2.4.6.6 1.3a4.7 4.7 0 0 1 .2.8 2.2 2.2 0 0 1-.1 1.3 1.5 1.5 0 0 1-1.1.8c-.9.1-1.4-.9-1.5-1a2.6 2.6 0 0 1 0-2.3c.1-.3.5-1.1 1.1-1.2zm3.7 0a1.1 1.1 0 0 0-.8.3c-.3.2-.4.6-.6 1.3a4.7 4.7 0 0 0-.2.8 2.2 2.2 0 0 0 .1 1.3 1.5 1.5 0 0 0 1.1.8c.9.1 1.4-.9 1.5-1a2.6 2.6 0 0 0 0-2.3C11 3 10.6 2.2 10 2.1zM3.5 4.7c.2.1.2.3.6.8s.5.5.7.8a1.7 1.7 0 0 1 .1 1.3c0 .1-.3.9-1 1s-1.4-1-1.4-1.1a2.2 2.2 0 0 1 0-1.9c.2-.5.7-1 1-.9zm9.1.1c-.2.1-.2.3-.6.8s-.5.5-.7.8a1.7 1.7 0 0 0-.1 1.3c0 .1.3.9 1 1s1.4-1 1.4-1.1a2.2 2.2 0 0 0 0-1.9c-.2-.5-.7-1-1-.9z" data-name="Layer 3"/></svg>