<svg id="Layer_1" data-name="Layer 1" xmlns="http://www.w3.org/2000/svg" width="32" height="32" viewBox="0 0 32 32"><title>32px Colour</title><circle cx="16" cy="16" r="14.5" fill="#ea6045"/><path d="M12.8,25.6h.6l.3.9-2.7.4S4.1,14.6,16.1,14.6s5,12.3,5,12.3l-2.7-.4.3-.9h.6s4.8-9-3.3-9.1S12.8,25.6,12.8,25.6Z" fill="#fff" stroke="#fff" stroke-linecap="round" stroke-linejoin="round" stroke-width="0.5"/><path d="M12.6,4.5a2.2,2.2,0,0,1,1.5.6c.6.5.8,1.1,1.2,2.5a9.1,9.1,0,0,1,.4,1.6,4.3,4.3,0,0,1-.2,2.6,2.9,2.9,0,0,1-2.2,1.6c-1.7.1-2.7-1.7-2.9-1.9a5.1,5.1,0,0,1,0-4.5C10.7,6.2,11.4,4.6,12.6,4.5Z" fill="#fff"/><path d="M19.8,4.5a2.2,2.2,0,0,0-1.5.6c-.6.5-.8,1.1-1.2,2.5a9.1,9.1,0,0,0-.4,1.6,4.3,4.3,0,0,0,.2,2.6,2.9,2.9,0,0,0,2.2,1.6c1.7.1,2.7-1.7,2.9-1.9a5.1,5.1,0,0,0,0-4.5C21.8,6.2,21.1,4.6,19.8,4.5Z" fill="#fff"/><path d="M7.2,9.6c.4.1.4.5,1.2,1.5s1.1.9,1.4,1.6a3.4,3.4,0,0,1,.1,2.5c0,.1-.7,1.7-2,1.9s-2.7-2-2.8-2.2a4.3,4.3,0,0,1,0-3.7C5.6,10.4,6.5,9.5,7.2,9.6Z" fill="#fff"/><path d="M24.9,9.8c-.4.1-.4.5-1.2,1.5s-1.1.9-1.4,1.6a3.4,3.4,0,0,0-.1,2.5c0,.1.7,1.7,2,1.9s2.7-2,2.8-2.2a4.3,4.3,0,0,0,0-3.7C26.5,10.5,25.6,9.6,24.9,9.8Z" fill="#fff"/></svg>